# xmcd
#
# Track frame offsets: 
#        150
#        8810
#        15282
#        26011
#        37389
#        50434
#        64788
#        74204
#        91021
#        105822
#        114134
#        128684
#        135089
#        141969
#        162000
#        171026
#        181556
#
# Disc length: 2525 seconds
#
# Revision: 0
# Processed by: cddbd v1.5.2PL0 Copyright (c) Steve Scherf et al.
# Submitted via: ExactAudioCopyFreeDBPlugin 1.0
#
DISCID=cb09db11
DTITLE=Various Artist - 風街であひませう
DYEAR=2015
DGENRE=Vocal
TTITLE0=斎藤工 - キャンディ
TTITLE1=宮﨑あおい - 夏色のおもいで
TTITLE2=東出昌大 - 言葉
TTITLE3=夏帆 - 蒼いフォトグラフ
TTITLE4=山田孝之 - はーばーらいと
TTITLE5=井浦新 - 瑠璃色の地球
TTITLE6=加瀬亮 - 夏なんです
TTITLE7=有村架純 - 魔女
TTITLE8=広瀬すず - 初戀
TTITLE9=中川翔子 - レモネードの夏
TTITLE10=太田裕美 - 外は白い雪の夜
TTITLE11=永山絢斗 - 空いろのくれよん
TTITLE12=小泉今日子 - 哀しみのボート
TTITLE13=斉藤由貴 - 卒業
TTITLE14=リリー・フランキー - 瞳はダイアモンド
TTITLE15=薬師丸ひろ子 - あなたを・もっと・知りたくて
TTITLE16=松本隆 - 風をあつめて
EXTD=
EXTT0=
EXTT1=
EXTT2=
EXTT3=
EXTT4=
EXTT5=
EXTT6=
EXTT7=
EXTT8=
EXTT9=
EXTT10=
EXTT11=
EXTT12=
EXTT13=
EXTT14=
EXTT15=
EXTT16=
PLAYORDER=
